# xmcd CD database file
#
# Track frame offsets:
#	150
#	12304
#	23245
#	36228
#	50735
#	66098
#	76215
#	90295
#	105251
#	114795
#	129760
#	142577
#	152996
#	166682
#	179551
#
# Disc length: 2566 seconds
#
# Revision: 2
# Processed by: cddbd v1.4b41PL1 Copyright (c) Steve Scherf et al.
# Submitted via: Feurio! 1.60 - http://www.feurio.com
#
DISCID=a90a040f,b50a040f
DTITLE=Don Williams - Don Williams
DYEAR=1900
DGENRE=
TTITLE0=Some Broken Hearts Never Men
TTITLE1=It Must Be Love
TTITLE2=Goodbye Isn't Really Good At All
TTITLE3=When I'm With You
TTITLE4=Till The Rivers All Run Dry
TTITLE5=Take My Hand For A While
TTITLE6=My Womans Love
TTITLE7=All I'm Missing Is You
TTITLE8=Endless Sleep
TTITLE9=Don't You Think It's Time
TTITLE10=I'm Getting Good At Missing You
TTITLE11=Turn Out The Lights
TTITLE12=I'm Just A Country Boy
TTITLE13=Where Do We Go From Here
TTITLE14=Where Are You
EXTD=
EXTT0=
EXTT1=
EXTT2=
EXTT3=
EXTT4=
EXTT5=
EXTT6=
EXTT7=
EXTT8=
EXTT9=
EXTT10=
EXTT11=
EXTT12=
EXTT13=
EXTT14=
PLAYORDER=
